<mxfile host="65bd71144e" scale="4" border="0">
    <diagram id="xl5XHihS3tdmODuH2ESo" name="Page-1">
        <mxGraphModel dx="189" dy="1650" grid="1" gridSize="10" guides="1" tooltips="1" connect="1" arrows="1" fold="1" page="1" pageScale="1" pageWidth="1169" pageHeight="827" math="1" shadow="0">
            <root>
                <mxCell id="0"/>
                <mxCell id="1" parent="0"/>
                <mxCell id="61" value="" style="ellipse;whiteSpace=wrap;html=1;rotation=-75;sketch=1;curveFitting=1;jiggle=2;fillStyle=hachure;fillColor=#FF8000;strokeColor=default;" parent="1" vertex="1">
                    <mxGeometry x="-31.65" y="123.92" width="800" height="502.5" as="geometry"/>
                </mxCell>
                <mxCell id="50" style="edgeStyle=none;html=1;endArrow=none;endFill=0;strokeWidth=2;sketch=1;curveFitting=1;jiggle=2;" parent="1" source="37" target="43" edge="1">
                    <mxGeometry relative="1" as="geometry"/>
                </mxCell>
                <mxCell id="53" style="edgeStyle=none;html=1;endArrow=none;endFill=0;strokeWidth=2;sketch=1;curveFitting=1;jiggle=2;" parent="1" source="37" target="42" edge="1">
                    <mxGeometry relative="1" as="geometry"/>
                </mxCell>
                <mxCell id="37" value="" style="ellipse;whiteSpace=wrap;html=1;aspect=fixed;strokeWidth=2;sketch=1;curveFitting=1;jiggle=2;fillColor=none;" parent="1" vertex="1">
                    <mxGeometry x="280" y="680" width="80" height="80" as="geometry"/>
                </mxCell>
                <mxCell id="48" style="edgeStyle=none;html=1;exitX=0;exitY=0.5;exitDx=0;exitDy=0;entryX=1;entryY=0.5;entryDx=0;entryDy=0;endArrow=none;endFill=0;strokeWidth=2;sketch=1;curveFitting=1;jiggle=2;" parent="1" source="38" target="37" edge="1">
                    <mxGeometry relative="1" as="geometry"/>
                </mxCell>
                <mxCell id="49" style="edgeStyle=none;html=1;endArrow=none;endFill=0;strokeWidth=2;sketch=1;curveFitting=1;jiggle=2;" parent="1" source="38" target="43" edge="1">
                    <mxGeometry relative="1" as="geometry"/>
                </mxCell>
                <mxCell id="54" style="edgeStyle=none;html=1;endArrow=none;endFill=0;strokeWidth=2;sketch=1;curveFitting=1;jiggle=2;" parent="1" source="38" target="42" edge="1">
                    <mxGeometry relative="1" as="geometry"/>
                </mxCell>
                <mxCell id="38" value="" style="ellipse;whiteSpace=wrap;html=1;aspect=fixed;strokeWidth=2;sketch=1;curveFitting=1;jiggle=2;fillColor=none;" parent="1" vertex="1">
                    <mxGeometry x="800" y="680" width="80" height="80" as="geometry"/>
                </mxCell>
                <mxCell id="44" style="edgeStyle=none;html=1;exitX=0.5;exitY=1;exitDx=0;exitDy=0;entryX=0.5;entryY=0;entryDx=0;entryDy=0;endArrow=none;endFill=0;strokeWidth=2;sketch=1;curveFitting=1;jiggle=2;" parent="1" source="40" target="37" edge="1">
                    <mxGeometry relative="1" as="geometry"/>
                </mxCell>
                <mxCell id="45" style="edgeStyle=none;html=1;exitX=1;exitY=0.5;exitDx=0;exitDy=0;entryX=0;entryY=0.5;entryDx=0;entryDy=0;endArrow=none;endFill=0;strokeWidth=2;sketch=1;curveFitting=1;jiggle=2;" parent="1" source="40" target="41" edge="1">
                    <mxGeometry relative="1" as="geometry"/>
                </mxCell>
                <mxCell id="52" style="edgeStyle=none;html=1;endArrow=none;endFill=0;strokeWidth=2;sketch=1;curveFitting=1;jiggle=2;" parent="1" source="40" target="42" edge="1">
                    <mxGeometry relative="1" as="geometry"/>
                </mxCell>
                <mxCell id="40" value="" style="ellipse;whiteSpace=wrap;html=1;aspect=fixed;strokeWidth=2;sketch=1;curveFitting=1;jiggle=2;fillColor=none;" parent="1" vertex="1">
                    <mxGeometry x="280" y="40" width="80" height="80" as="geometry"/>
                </mxCell>
                <mxCell id="46" style="edgeStyle=none;html=1;exitX=0.5;exitY=1;exitDx=0;exitDy=0;entryX=0.5;entryY=0;entryDx=0;entryDy=0;endArrow=none;endFill=0;strokeWidth=2;sketch=1;curveFitting=1;jiggle=2;" parent="1" source="41" target="38" edge="1">
                    <mxGeometry relative="1" as="geometry"/>
                </mxCell>
                <mxCell id="51" style="edgeStyle=none;html=1;endArrow=none;endFill=0;strokeWidth=2;sketch=1;curveFitting=1;jiggle=2;" parent="1" source="41" target="42" edge="1">
                    <mxGeometry relative="1" as="geometry"/>
                </mxCell>
                <mxCell id="56" style="edgeStyle=none;html=1;endArrow=none;endFill=0;strokeWidth=2;sketch=1;curveFitting=1;jiggle=2;" parent="1" source="41" target="43" edge="1">
                    <mxGeometry relative="1" as="geometry"/>
                </mxCell>
                <mxCell id="41" value="" style="ellipse;whiteSpace=wrap;html=1;aspect=fixed;strokeWidth=2;sketch=1;curveFitting=1;jiggle=2;fillColor=none;" parent="1" vertex="1">
                    <mxGeometry x="800" y="40" width="80" height="80" as="geometry"/>
                </mxCell>
                <mxCell id="42" value="" style="ellipse;whiteSpace=wrap;html=1;aspect=fixed;strokeWidth=2;sketch=1;curveFitting=1;jiggle=2;fillColor=none;" parent="1" vertex="1">
                    <mxGeometry x="540" y="220" width="80" height="80" as="geometry"/>
                </mxCell>
                <mxCell id="55" style="edgeStyle=none;html=1;exitX=0.5;exitY=0;exitDx=0;exitDy=0;entryX=0.5;entryY=1;entryDx=0;entryDy=0;strokeWidth=2;endArrow=none;endFill=0;sketch=1;curveFitting=1;jiggle=2;" parent="1" source="43" target="42" edge="1">
                    <mxGeometry relative="1" as="geometry"/>
                </mxCell>
                <mxCell id="57" style="edgeStyle=none;html=1;endArrow=none;endFill=0;strokeWidth=2;sketch=1;curveFitting=1;jiggle=2;" parent="1" source="43" target="40" edge="1">
                    <mxGeometry relative="1" as="geometry"/>
                </mxCell>
                <mxCell id="43" value="" style="ellipse;whiteSpace=wrap;html=1;aspect=fixed;strokeWidth=2;sketch=1;curveFitting=1;jiggle=2;fillColor=none;" parent="1" vertex="1">
                    <mxGeometry x="540" y="600" width="80" height="80" as="geometry"/>
                </mxCell>
                <mxCell id="64" value="&lt;font style=&quot;font-size: 60px;&quot;&gt;\(U\)&lt;/font&gt;" style="text;html=1;align=center;verticalAlign=middle;resizable=0;points=[];autosize=1;strokeColor=none;fillColor=none;" parent="1" vertex="1">
                    <mxGeometry x="80" y="100" width="140" height="90" as="geometry"/>
                </mxCell>
                <mxCell id="66" value="" style="endArrow=classic;html=1;sketch=1;curveFitting=1;jiggle=2;rounded=0;curved=1;strokeWidth=2;dashed=1;exitX=0.491;exitY=0.071;exitDx=0;exitDy=0;exitPerimeter=0;" parent="1" source="67" edge="1">
                    <mxGeometry width="50" height="50" relative="1" as="geometry">
                        <mxPoint x="1150" y="200" as="sourcePoint"/>
                        <mxPoint x="670" y="80" as="targetPoint"/>
                        <Array as="points">
                            <mxPoint x="970" y="-120"/>
                        </Array>
                    </mxGeometry>
                </mxCell>
                <mxCell id="67" value="&lt;font face=&quot;Comic Sans MS&quot; style=&quot;font-size: 32px;&quot;&gt;\(U\) covers these edges&lt;/font&gt;" style="text;html=1;align=center;verticalAlign=middle;resizable=0;points=[];autosize=1;strokeColor=none;fillColor=none;sketch=1;curveFitting=1;jiggle=2;" parent="1" vertex="1">
                    <mxGeometry x="935" y="260" width="400" height="50" as="geometry"/>
                </mxCell>
                <mxCell id="68" value="" style="endArrow=classic;html=1;sketch=1;curveFitting=1;jiggle=2;rounded=0;curved=1;strokeWidth=2;dashed=1;exitX=0.487;exitY=0.078;exitDx=0;exitDy=0;exitPerimeter=0;" parent="1" source="67" edge="1">
                    <mxGeometry width="50" height="50" relative="1" as="geometry">
                        <mxPoint x="1140" y="200" as="sourcePoint"/>
                        <mxPoint x="470" y="190" as="targetPoint"/>
                        <Array as="points">
                            <mxPoint x="740" y="90"/>
                        </Array>
                    </mxGeometry>
                </mxCell>
                <mxCell id="69" value="&lt;font face=&quot;Comic Sans MS&quot; style=&quot;font-size: 32px;&quot;&gt;\(U\) does not cover&lt;/font&gt;&lt;div&gt;&lt;font face=&quot;Comic Sans MS&quot; style=&quot;font-size: 32px;&quot;&gt;these edges&lt;/font&gt;&lt;/div&gt;" style="text;html=1;align=center;verticalAlign=middle;resizable=0;points=[];autosize=1;strokeColor=none;fillColor=none;sketch=1;curveFitting=1;jiggle=2;" parent="1" vertex="1">
                    <mxGeometry x="935" y="450" width="330" height="90" as="geometry"/>
                </mxCell>
                <mxCell id="70" value="" style="endArrow=classic;html=1;sketch=1;curveFitting=1;jiggle=2;rounded=0;curved=1;strokeWidth=2;dashed=1;" parent="1" edge="1">
                    <mxGeometry width="50" height="50" relative="1" as="geometry">
                        <mxPoint x="1070" y="550" as="sourcePoint"/>
                        <mxPoint x="840" y="590" as="targetPoint"/>
                        <Array as="points">
                            <mxPoint x="1010" y="650"/>
                        </Array>
                    </mxGeometry>
                </mxCell>
                <mxCell id="71" value="" style="endArrow=classic;html=1;sketch=1;curveFitting=1;jiggle=2;rounded=0;curved=1;strokeWidth=2;dashed=1;" parent="1" edge="1">
                    <mxGeometry width="50" height="50" relative="1" as="geometry">
                        <mxPoint x="1070" y="550" as="sourcePoint"/>
                        <mxPoint x="610" y="580" as="targetPoint"/>
                        <Array as="points">
                            <mxPoint x="950" y="720"/>
                        </Array>
                    </mxGeometry>
                </mxCell>
            </root>
        </mxGraphModel>
    </diagram>
</mxfile>
